<?xml version="1.0" encoding="utf-8"?>
<!-- Generator: Adobe Illustrator 22.1.0, SVG Export Plug-In . SVG Version: 6.00 Build 0)  -->
<svg version="1.1" id="Layer_1" xmlns="http://www.w3.org/2000/svg" xmlns:xlink="http://www.w3.org/1999/xlink" x="0px" y="0px"
	 viewBox="0 0 851 315" style="enable-background:new 0 0 851 315;" xml:space="preserve">
<style type="text/css">
	.st0{fill:none;stroke:#32FCB6;stroke-width:2.05;stroke-linecap:round;stroke-linejoin:round;stroke-miterlimit:10;}
	.st1{fill:none;stroke:#32FCB6;stroke-width:2.0499;stroke-linecap:round;stroke-linejoin:round;stroke-miterlimit:10;}
	.st2{fill:none;stroke:#32FCB6;stroke-width:1.0303;stroke-linecap:round;stroke-linejoin:round;stroke-miterlimit:10;}
	.st3{fill:#FFFFFF;stroke:#2469FF;stroke-width:2.0499;stroke-linecap:round;stroke-linejoin:round;stroke-miterlimit:10;}
	.st4{fill:#D2E0F9;stroke:#2469FF;stroke-width:2.0499;stroke-miterlimit:10;}
	.st5{fill:#FFFFFF;stroke:#2469FF;stroke-width:2.0499;stroke-miterlimit:10;}
	.st6{opacity:0.6;fill:#32FCB6;}
	.st7{fill:#32FCB6;}
	.st8{clip-path:url(#SVGID_2_);fill:#FFFFFF;stroke:#2469FF;stroke-width:2.0499;stroke-miterlimit:10;}
	.st9{fill:#FFFFFF;stroke:#2469FF;stroke-width:2.6689;stroke-linecap:round;stroke-linejoin:round;stroke-miterlimit:10;}
	.st10{fill:#FFFFFF;stroke:#2469FF;stroke-width:2.5832;stroke-linecap:round;stroke-linejoin:round;stroke-miterlimit:10;}
	.st11{fill:#FFFFFF;stroke:#32FCB6;stroke-width:2.5832;stroke-linecap:round;stroke-linejoin:round;stroke-miterlimit:10;}
	.st12{fill:none;stroke:#2469FF;stroke-width:2.5832;stroke-linecap:round;stroke-linejoin:round;stroke-miterlimit:10;}
	.st13{fill:none;stroke:#32FCB6;stroke-width:2.5832;stroke-linecap:round;stroke-linejoin:round;stroke-miterlimit:10;}
	.st14{fill:#32FCB6;stroke:#32FCB6;stroke-width:2.5832;stroke-linecap:round;stroke-linejoin:round;stroke-miterlimit:10;}
	.st15{fill:#FFFFFF;stroke:#2469FF;stroke-width:2.2602;stroke-linecap:round;stroke-linejoin:round;stroke-miterlimit:10;}
	.st16{fill:#2469FF;}
	.st17{fill:#FFFFFF;stroke:#2469FF;stroke-width:2.2865;stroke-linecap:round;stroke-linejoin:round;stroke-miterlimit:10;}
	.st18{fill:none;stroke:#2469FF;stroke-width:2.0499;stroke-miterlimit:10;}
	.st19{fill:#2469FF;stroke:#2469FF;stroke-width:0.5;stroke-miterlimit:10;}
	.st20{font-family:'Raleway-Italic';}
	.st21{font-size:33.4041px;}
</style>
<path class="st0" d="M187.7,99.3l-4.6-4.6c-3.6-3.6,1-8.2,4.6-4.6c3.6-3.6,8.2,1,4.6,4.6L187.7,99.3z"/>
<path class="st0" d="M99.7,206.3l-4.6-4.6c-3.6-3.6,1-8.2,4.6-4.6c3.6-3.6,8.2,1,4.6,4.6L99.7,206.3z"/>
<path class="st0" d="M732.7,54.3l-4.6-4.6c-3.6-3.6,1-8.2,4.6-4.6c3.6-3.6,8.2,1,4.6,4.6L732.7,54.3z"/>
<path class="st0" d="M555.7,41.3l-4.6-4.6c-3.6-3.6,1-8.2,4.6-4.6c3.6-3.6,8.2,1,4.6,4.6L555.7,41.3z"/>
<path class="st1" d="M648.2,207.3l-4.2-4.2c-3.3-3.3,0.9-7.5,4.2-4.2c3.3-3.3,7.5,0.9,4.2,4.2L648.2,207.3z"/>
<path class="st1" d="M636.3,91.8l-4.2-4.2c-3.3-3.3,0.9-7.5,4.2-4.2c3.3-3.3,7.5,0.9,4.2,4.2L636.3,91.8z"/>
<path class="st1" d="M339.3,101.8l-4.2-4.2c-3.3-3.3,0.9-7.5,4.2-4.2c3.3-3.3,7.5,0.9,4.2,4.2L339.3,101.8z"/>
<path class="st1" d="M781.3,115.8l-4.2-4.2c-3.3-3.3,0.9-7.5,4.2-4.2c3.3-3.3,7.5,0.9,4.2,4.2L781.3,115.8z"/>
<circle class="st2" cx="196.7" cy="124" r="4.8"/>
<circle class="st2" cx="592.3" cy="141.7" r="4.8"/>
<circle class="st2" cx="646.3" cy="48.7" r="4.8"/>
<circle class="st2" cx="186.3" cy="62.7" r="4.8"/>
<circle class="st2" cx="181.3" cy="157.7" r="4.8"/>
<circle class="st2" cx="94.3" cy="111.7" r="4.8"/>
<circle class="st2" cx="698.3" cy="91.7" r="4.8"/>
<circle class="st2" cx="708.3" cy="148.7" r="4.8"/>
<circle class="st2" cx="764.3" cy="67.7" r="4.8"/>
<circle class="st2" cx="50.8" cy="167.6" r="4.8"/>
<circle class="st2" cx="255.1" cy="67.9" r="4.8"/>
<circle class="st2" cx="304.1" cy="25.9" r="4.8"/>
<circle class="st2" cx="114.1" cy="40.9" r="4.8"/>
<circle class="st2" cx="285.1" cy="91.9" r="4.8"/>
<circle class="st2" cx="491.1" cy="18.9" r="4.8"/>
<circle class="st2" cx="501.1" cy="93.9" r="4.8"/>
<line class="st0" x1="174" y1="36" x2="236" y2="36"/>
<line class="st0" x1="211" y1="68" x2="245" y2="68"/>
<line class="st0" x1="141" y1="63" x2="175" y2="63"/>
<line class="st0" x1="49" y1="71" x2="83" y2="71"/>
<line class="st0" x1="30" y1="83" x2="51" y2="83"/>
<line class="st0" x1="17" y1="168" x2="38" y2="168"/>
<line class="st0" x1="775" y1="66" x2="796" y2="66"/>
<line class="st0" x1="780" y1="183" x2="801" y2="183"/>
<line class="st0" x1="751" y1="139" x2="785" y2="139"/>
<line class="st0" x1="671" y1="71" x2="705" y2="71"/>
<line class="st0" x1="554" y1="63" x2="588" y2="63"/>
<line class="st0" x1="314" y1="77" x2="491" y2="77"/>
<line class="st0" x1="503" y1="77" x2="537" y2="77"/>
<line class="st0" x1="744" y1="235" x2="778" y2="235"/>
<line class="st0" x1="728" y1="194" x2="791" y2="194"/>
<line class="st0" x1="153" y1="124" x2="187" y2="124"/>
<line class="st0" x1="69" y1="136" x2="131" y2="136"/>
<line class="st0" x1="693" y1="128" x2="763" y2="128"/>
<line class="st0" x1="698" y1="184" x2="732" y2="184"/>
<line class="st0" x1="120" y1="77" x2="154" y2="77"/>
<line class="st0" x1="254" y1="50" x2="288" y2="50"/>
<line class="st0" x1="581" y1="49" x2="632" y2="49"/>
<line class="st0" x1="285" y1="59" x2="304" y2="59"/>
<line class="st0" x1="431" y1="95" x2="485" y2="95"/>
<line class="st0" x1="66" y1="226" x2="123" y2="226"/>
<line class="st0" x1="25" y1="209" x2="73" y2="209"/>
<line class="st0" x1="710" y1="92" x2="744" y2="92"/>
<g>
	<path class="st3" d="M358.5,273L358.5,273c6.1,0,11.1-5,11.1-11.1l0-22.6l73.5,0l0,22.6c0,6.1,5,11.1,11.1,11.1l0,0L358.5,273z"/>
	<path class="st4" d="M509.5,243.8l-206.3,0.1c-2.5,0-4.6-2.1-4.6-4.6l-0.1-119.4c0-2.5,2.1-4.6,4.6-4.6l206.3-0.1
		c2.5,0,4.6,2.1,4.6,4.6l0.1,119.4C514.1,241.7,512.1,243.8,509.5,243.8z"/>
	<path class="st5" d="M309.7,230.4l0-101.6c0-1.3,1.1-2.4,2.4-2.4l188.6-0.1c1.3,0,2.4,1.1,2.4,2.4l0,101.6c0,1.3-1.1,2.4-2.4,2.4
		l-188.6,0.1C310.8,232.7,309.7,231.7,309.7,230.4z"/>
	<rect x="321.8" y="139.2" class="st6" width="51.9" height="34.6"/>
	<rect x="380.4" y="139.2" class="st6" width="51.9" height="34.6"/>
	<rect x="438.9" y="139.2" class="st7" width="51.9" height="34.6"/>
	<rect x="321.9" y="181" class="st6" width="169" height="34.6"/>
	<g>
		<defs>
			<rect id="SVGID_1_" x="626.8" y="209.4" width="102.5" height="63.5"/>
		</defs>
		<clipPath id="SVGID_2_">
			<use xlink:href="#SVGID_1_"  style="overflow:visible;"/>
		</clipPath>
		<path class="st8" d="M713.4,281.1c-1,4.3-2.7,8.4-5,12l5.8,6.6l-10.8,10.8l-6.6-5.8c-3.6,2.3-7.7,4-12,5l-0.6,8.8l-15.2,0
			l-0.6-8.8c-4.3-1-8.4-2.7-12-5l-6.6,5.8l-10.8-10.8l5.8-6.6c-2.3-3.6-4-7.7-5-12l-8.8-0.6l0-15.2l8.8-0.6c1-4.3,2.7-8.4,5-12
			l-5.8-6.6l10.8-10.8l6.6,5.8c3.6-2.3,7.7-4,12-5l0.6-8.8l15.2,0l0.6,8.8c4.3,1,8.4,2.7,12,5l6.6-5.8l10.8,10.8l-5.8,6.6
			c2.3,3.6,4,7.7,5,12l8.8,0.6l0,15.2L713.4,281.1z"/>
		<circle class="st8" cx="676.7" cy="272.9" r="25.2"/>
	</g>
	<line class="st5" x1="125.2" y1="273.1" x2="753.5" y2="272.9"/>
	<path class="st7" d="M468.5,210.4l-32.1,0c-0.8,0-1.5-0.7-1.5-1.5l0-12.9c0-0.8,0.7-1.5,1.5-1.5l32.1,0c0.8,0,1.5,0.7,1.5,1.5
		l0,12.9C470,209.7,469.4,210.4,468.5,210.4z"/>
	<path class="st4" d="M336.4,273L204,273.1c-1.6,0-2.9-1.3-2.9-2.9l0-83.7c0-1.6,1.3-2.9,2.9-2.9l132.4-0.1c1.6,0,2.9,1.3,2.9,2.9
		l0,83.7C339.3,271.8,338,273,336.4,273z"/>
	<g>
		<path class="st9" d="M589.2,167.7l0,105.3L426.1,273l0-105.3c0-1.9,1.6-3.5,3.5-3.5l156.1-0.1
			C587.6,164.1,589.2,165.7,589.2,167.7z"/>

			<rect x="461.7" y="148.6" transform="matrix(4.561219e-04 1 -1 4.561219e-04 727.9421 -287.2675)" class="st9" width="92" height="143.8"/>
	</g>
	<path class="st4" d="M597.9,260.5l0,10.8c0,0.9-0.7,1.6-1.5,1.6L419.3,273c-0.8,0-1.5-0.7-1.5-1.6l0-10.8c0-0.9,0.7-1.6,1.5-1.6
		l67.9,0c0.8,0,1.5,0.7,1.5,1.6l0,0c0,0.9,0.7,1.6,1.5,1.6l35.4,0c0.8,0,1.5-0.7,1.5-1.6l0,0c0-0.9,0.7-1.6,1.5-1.6l67.9,0
		C597.2,258.9,597.9,259.6,597.9,260.5z"/>
	<path class="st5" d="M208.3,256.5l0-64c0-0.9,0.7-1.6,1.6-1.6l120.6-0.1c0.9,0,1.6,0.7,1.6,1.6l0,64c0,0.9-0.7,1.6-1.6,1.6
		l-120.6,0.1C209,258.1,208.3,257.4,208.3,256.5z"/>
	<circle class="st5" cx="267.2" cy="265.4" r="3"/>
	<line class="st5" x1="216.1" y1="249.2" x2="269.3" y2="249.1"/>
	<line class="st5" x1="216.1" y1="243.3" x2="323.9" y2="243.3"/>
	<g>
		<line class="st10" x1="443.9" y1="183.4" x2="478.3" y2="183.4"/>
		<line class="st10" x1="443.9" y1="192.9" x2="513.7" y2="192.8"/>
		<line class="st11" x1="443.9" y1="209.5" x2="464.9" y2="209.5"/>
		<line class="st10" x1="470.4" y1="209.5" x2="516.7" y2="209.5"/>
		<line class="st11" x1="522.1" y1="209.5" x2="531.9" y2="209.5"/>
		<line class="st12" x1="502.4" y1="183.4" x2="523.7" y2="183.4"/>
		<line class="st12" x1="443.4" y1="200.9" x2="486.5" y2="200.8"/>
		<line class="st10" x1="443.4" y1="241" x2="486.5" y2="241"/>
		<line class="st10" x1="493.1" y1="200.8" x2="504.3" y2="200.8"/>
		<line class="st10" x1="443" y1="218.1" x2="454.2" y2="218.1"/>
		<line class="st11" x1="493.2" y1="241" x2="504.4" y2="241"/>
		<line class="st13" x1="443" y1="226.8" x2="472.9" y2="226.8"/>
		<line class="st10" x1="443" y1="233.8" x2="461.9" y2="233.8"/>
		<line class="st10" x1="494.9" y1="233.8" x2="550.9" y2="233.8"/>
		<line class="st10" x1="468.8" y1="233.8" x2="487.8" y2="233.8"/>
		<line class="st13" x1="478.6" y1="226.8" x2="491.3" y2="226.8"/>
		<line class="st10" x1="498.8" y1="226.7" x2="531.9" y2="226.7"/>
		<line class="st10" x1="459.3" y1="218.1" x2="495.6" y2="218.1"/>
		<line class="st12" x1="500.6" y1="218.1" x2="524.7" y2="218.1"/>
		<line class="st14" x1="483.7" y1="183.4" x2="495.6" y2="183.4"/>
	</g>
	<path class="st4" d="M607.1,272.9l-39.5,0c-2.3,0-4.2-1.9-4.2-4.2l0-65.9c0-2.3,1.9-4.2,4.2-4.2l39.5,0c2.3,0,4.2,1.9,4.2,4.2
		l0,65.9C611.3,271,609.4,272.9,607.1,272.9z"/>

		<rect x="560.3" y="217.9" transform="matrix(4.561219e-04 1 -1 4.561219e-04 821.759 -352.7977)" class="st15" width="54.1" height="33.5"/>
	<rect x="588.5" y="218.8" class="st7" width="38.3" height="14.4"/>
	<polygon class="st7" points="590.3,257.8 587,251.7 590.3,248.4 593.7,251.7 	"/>
	<circle class="st16" cx="599.6" cy="226" r="2.6"/>
	<circle class="st16" cx="608.8" cy="226" r="2.6"/>
	<circle class="st16" cx="617.9" cy="226" r="2.6"/>
	<line class="st17" x1="580.9" y1="266.7" x2="592" y2="266.7"/>
	<path class="st7" d="M501.5,164.2"/>
	<g>
		<path class="st16" d="M586.7,102.3c-0.6-10.2-9-18.3-19.1-18.3c-6.1,0-12.1,3-15.8,7.9c-0.1,0-0.2-0.1-0.3-0.1
			c-0.2-0.1-0.5-0.2-0.7-0.3c-0.1-0.1-0.3-0.1-0.4-0.1c-0.2-0.1-0.5-0.2-0.7-0.2c-0.1,0-0.3-0.1-0.4-0.1c-0.3-0.1-0.5-0.1-0.8-0.1
			c-0.1,0-0.2,0-0.3-0.1c-0.4,0-0.8-0.1-1.1-0.1c-5.6,0-10.2,4.6-10.2,10.2c0,0.1,0,0.3,0,0.4c-4.7,2.6-7.9,7.9-7.9,13.3
			c0,8,6.5,14.5,14.5,14.5l5.8,0c0.6,0,1.1-0.5,1.1-1.1c0-0.6-0.5-1.1-1.1-1.1l-5.8,0c-6.8,0-12.3-5.5-12.3-12.2
			c0-4.7,3.1-9.6,7.3-11.6l0.6-0.3l0-0.7c0-0.1,0-0.3,0-0.4l0-0.2l0-0.2c0-0.1,0-0.2,0-0.3c0-4.4,3.5-7.9,7.9-7.9c0.3,0,0.7,0,1,0.1
			c0.1,0,0.2,0,0.3,0c0.3,0,0.6,0.1,0.9,0.2c0,0,0.1,0,0.1,0c0.3,0.1,0.6,0.2,0.9,0.4c0.1,0,0.2,0.1,0.2,0.1
			c0.3,0.1,0.5,0.3,0.8,0.5c2.2,1.4,3.6,3.9,3.6,6.6c0,0.6,0.5,1.1,1.1,1.1s1.1-0.5,1.1-1.1c0-3.1-1.4-5.9-3.6-7.8
			c3.2-4.2,8.6-6.9,13.9-6.9c8.7,0,16,6.9,16.8,15.7c-1.2-0.1-2.9-0.1-4.6,0.1c-0.6,0.1-1,0.7-0.9,1.3c0.1,0.6,0.6,1,1.1,1
			c0.1,0,0.1,0,0.2,0c2.5-0.4,5.1,0,5.3,0c5.3,1,9.2,5.8,9.2,11.3c0,6.2-5.1,11.3-11.3,11.3l-4.5,0c-0.6,0-1.1,0.5-1.1,1.1
			c0,0.6,0.5,1.1,1.1,1.1l4.5,0c7.5,0,13.6-6.1,13.6-13.6C596.9,109.4,592.6,103.9,586.7,102.3z"/>
		<path class="st16" d="M564.9,113.7c-0.1-0.1-0.2-0.2-0.4-0.2c-0.3-0.1-0.6-0.1-0.9,0c-0.1,0.1-0.3,0.1-0.4,0.2l-9,9
			c-0.4,0.4-0.4,1.2,0,1.6c0.2,0.2,0.5,0.3,0.8,0.3c0.3,0,0.6-0.1,0.8-0.3l7.1-7.1l0,23.3c0,0.6,0.5,1.1,1.1,1.1
			c0.6,0,1.1-0.5,1.1-1.1l0-23.3l7.1,7.1c0.2,0.2,0.5,0.3,0.8,0.3c0.3,0,0.6-0.1,0.8-0.3c0.4-0.4,0.4-1.2,0-1.6L564.9,113.7z"/>
	</g>
	<g>
		<path class="st5" d="M256.5,155c0,6.3-6.3,12.7-6.3,12.7s-6.3-6.4-6.3-12.7c0-6.3,6.3-10.6,6.3-10.6S256.5,148.7,256.5,155z"/>
		<path class="st5" d="M245.3,124.3c-14.7-3.3-17.9,15.7-17.9,15.7s16.4-12.7,24.8-0.7C255.2,143.5,250.2,125.4,245.3,124.3z"/>
		<path class="st5" d="M253.8,124.3c14.7-3.3,17.9,15.7,17.9,15.7s-16.4-12.7-24.8-0.7C243.9,143.5,248.8,125.4,253.8,124.3z"/>
		<path class="st5" d="M262.9,127.3c0,14.8-1.3,16.3-4.6,22.6l-16,0c-3.3-6.1-4.6-7.8-4.6-22.6c0-16.7,12.6-28.1,12.6-28.1
			S262.9,110.6,262.9,127.3z"/>
		<circle class="st5" cx="250.3" cy="120.6" r="4.4"/>
		<line class="st5" x1="242.3" y1="109.9" x2="258.1" y2="109.9"/>
		<line class="st5" x1="239" y1="142.9" x2="261.6" y2="142.9"/>
	</g>
	<g>
		<path class="st7" d="M670,123l-54.2,0c-2,0-3.5,1.6-3.5,3.6l0,5.6l61.3,0l0-5.6C673.5,124.6,672,123,670,123z"/>
		<path class="st18" d="M670.1,184.4l-54.3,0c-1.9,0-3.5-1.6-3.5-3.5l0-54.3c0-1.9,1.6-3.5,3.5-3.5l54.3,0c1.9,0,3.5,1.6,3.5,3.5
			l0,54.3C673.6,182.8,672,184.4,670.1,184.4z"/>
		<circle class="st16" cx="654" cy="128.4" r="1.5"/>
		<circle class="st16" cx="664.9" cy="142.2" r="2.7"/>
		<circle class="st16" cx="636" cy="151" r="2.7"/>
		<circle class="st16" cx="619.2" cy="173.8" r="2.7"/>
		<circle class="st16" cx="648.4" cy="163.8" r="2.7"/>
		<circle class="st16" cx="659.8" cy="128.4" r="1.5"/>
		<circle class="st16" cx="665.7" cy="128.4" r="1.5"/>
		<polyline class="st18" points="619.2,173.8 635.9,150.5 648.6,164 665.2,141.6 		"/>
	</g>
	<rect x="217.3" y="205.6" class="st6" width="30.1" height="26.1"/>
	<rect x="254.5" y="205.6" class="st7" width="30.1" height="26.1"/>
	<rect x="291.8" y="205.6" class="st6" width="30.1" height="26.1"/>
	<path class="st3" d="M178.6,251.4l-15.6,8.1l-39.9-76.3c-2.2-4.3-0.6-9.6,3.7-11.9l0,0c4.3-2.2,9.6-0.6,11.9,3.7L178.6,251.4z"/>
	<line class="st3" x1="134.5" y1="186" x2="170.8" y2="255.4"/>
	<line class="st3" x1="126.8" y1="190.1" x2="142.3" y2="182"/>
	<polygon class="st3" points="163,259.5 180,273.1 178.6,251.4 	"/>
	<line class="st5" x1="46" y1="286.2" x2="163" y2="286.1"/>
	<line class="st5" x1="706" y1="285.9" x2="823" y2="285.8"/>
	<line class="st5" x1="352" y1="286" x2="627" y2="285.9"/>
	<line class="st5" x1="313" y1="295" x2="376" y2="294.9"/>
</g>
</svg>
